HIERARCHY
ROOT pelvis
{
  OFFSET 0 100 0
  CHANNELS 6 Xposition Yposition Zposition Zrotation Xrotation Yrotation
  JOINT pelvis_right_femur
  {
    OFFSET -10.78128 -3.44521 -0.5502486
    CHANNELS 3 Zrotation Xrotation Yrotation
    JOINT right_femur_tibia
    {
      OFFSET -0.8047443 -44.0398 -0.1307829
      CHANNELS 3 Zrotation Xrotation Yrotation
      JOINT right_tibia_foot
      {
        OFFSET 3.006224 -47.83518 -5
        CHANNELS 3 Zrotation Xrotation Yrotation
        End Site
        {
          OFFSET 0 -5 15
        }
      }
    }
  }
  JOINT pelvis_left_femur
  {
    OFFSET 10.78128 -3.44521 -0.5502486
    CHANNELS 3 Zrotation Xrotation Yrotation
    JOINT left_femur_tibia
    {
      OFFSET 0.8047443 -44.0398 -0.1307829
      CHANNELS 3 Zrotation Xrotation Yrotation
      JOINT left_tibia_foot
      {
        OFFSET -4.370144 -48.10324 -4.275266
        CHANNELS 3 Zrotation Xrotation Yrotation
        End Site
        {
          OFFSET 0 -5 15
        }
      }
    }
  }
  JOINT pelvis_spine1
  {
    OFFSET 0 6.468898 -3.129235
    CHANNELS 3 Zrotation Xrotation Yrotation
    JOINT spine1
    {
      OFFSET 0 23.15396 4.99043
      CHANNELS 3 Zrotation Xrotation Yrotation
      JOINT spine2
      {
        OFFSET 0 20.79997 -5.064912
        CHANNELS 3 Zrotation Xrotation Yrotation
        JOINT neck
        {
          OFFSET 0 14.38658 9.616178
          CHANNELS 3 Zrotation Xrotation Yrotation
          End Site
          {
            OFFSET 0 20 0
          }
        }
      }
      JOINT right_manubrium
      {
        OFFSET -5.722621 16.35077 3.967754
        CHANNELS 3 Zrotation Xrotation Yrotation
        JOINT right_clavicle
        {
          OFFSET -13.16364 1.694482 -4.693211
          CHANNELS 3 Zrotation Xrotation Yrotation
          JOINT right_humerus
          {
            OFFSET -28.5034 -0.3100689 -2.792744
            CHANNELS 3 Zrotation Xrotation Yrotation
            JOINT right_radius
            {
              OFFSET -25.15693 0.02248979 -1.271978
              CHANNELS 3 Zrotation Xrotation Yrotation
              End Site
              {
                OFFSET -15 0 0
              }
            }
          }
        }
      }
      JOINT left_manubrium
      {
        OFFSET 5.722621 16.35077 3.967754
        CHANNELS 3 Zrotation Xrotation Yrotation
        JOINT left_clavicle
        {
          OFFSET 13.16364 1.694482 -4.693211
          CHANNELS 3 Zrotation Xrotation Yrotation
          JOINT left_humerus
          {
            OFFSET 29.39168 -1.063119 -2.237045
            CHANNELS 3 Zrotation Xrotation Yrotation
            JOINT left_radius
            {
              OFFSET 24.59957 -0.9528479 0.9047498
              CHANNELS 3 Zrotation Xrotation Yrotation
              End Site
              {
                OFFSET 15 -0 -0
              }
            }
          }
        }
      }
    }
  }
}
MOTION
Frames: 17
Frame Time: 0.0416666666667
0 103.5113 0 1.555994 -1.064846 -0.1112303 2.511654 -15.72358 10.60601 -0 40.70099 -0 -6.507267 -16.73653 -2.707996 -7.737517 8.801954 -22.4461 -0 6.168723 -0 19.95674 -8.07416 29.30482 -2.512101 -2.788286 5.326468 2.689118 10.02934 -7.729977 1.57536 21.08281 5.620021 2.39941 -25.30463 8.836597 5.077027 -20.34588 11.26051 85.41168 34.98253 -17.54863 -0 0 16.65301 -9.077424 9.032621 5.144177 6.498468 -20.63143 -0.2822264 -92.68557 21.9835 21.71114 0 0 -13.79406 12.54851 15.43771 -0.835
0.4246534 103.7567 1.763783 0.9739452 -0.5682038 -0.3304493 3.480791 -18.96536 10.88936 -0 40.7611 -0 -7.111669 -14.91579 -2.516027 -7.372757 8.141308 -21.23678 -0 6.599905 -0 21.98426 -7.39841 29.21402 -2.342329 -2.572891 5.178412 2.77515 9.882917 -7.807968 1.480903 20.834 5.983476 2.706283 -25.60922 8.89872 5.029146 -19.97539 11.29926 85.56909 34.81404 -17.88025 -0 0 16.16616 -9.331401 9.281978 5.330728 6.63146 -20.75163 -0.201157 -92.43014 21.86685 21.14442 0 0 -14.44598 12.34491 14.95285 -0.7076769
0.8147901 103.6201 3.461223 0.8574963 0.6814294 -0.6146478 4.287916 -20.90352 11.72627 -0 35.23193 -0 -4.762489 -16.0694 -3.899532 -7.236807 8.747984 -21.13201 -0 5.076769 -0 17.90004 -11.74518 28.56922 -2.195683 -2.486705 4.731813 3.139974 9.684559 -8.200075 1.444507 20.36446 6.50608 3.102192 -26.45217 9.271351 5.127966 -19.3568 11.32032 86.25498 34.59161 -19.28969 -0 0 15.2175 -8.894628 9.47863 4.869853 6.978339 -20.97633 -0.02813109 -92.22531 21.59829 20.1756 0 0 -15.20933 12.64855 14.63105 -1.351198
1.155876 103.2191 5.259872 0.5616972 1.151135 -0.8650303 4.824275 -23.00656 11.13686 -0 32.16829 -0 -4.491398 -14.81082 -4.181911 -6.907535 9.410451 -20.72098 -0 4.513163 -0 14.58378 -15.00283 27.42023 -2.039108 -2.341824 4.405536 3.390175 9.510596 -8.462244 1.385957 19.98365 6.957125 3.462198 -27.06458 9.516716 5.146632 -18.8493 11.35409 86.72663 34.36332 -20.22962 -0 0 14.46646 -8.776017 9.704406 4.698778 7.228964 -21.15418 0.1084173 -91.98278 21.34462 19.35719 0 0 -15.90935 12.75178 14.21336 -1.712492
1.440111 102.6362 7.204886 0.08242839 1.701067 -1.076526 5.62962 -25.72423 10.80104 -0 29.75377 -0 -4.537623 -12.97467 -4.437852 -6.451735 10.0641 -20.31173 -0 4.328569 -0 11.21911 -18.16999 26.15669 -1.878266 -2.219479 4.10228 3.599151 9.335212 -8.688229 1.339845 19.64785 7.393391 3.828037 -27.59186 9.751809 5.249764 -18.31676 11.36021 87.1302 34.20407 -21.16551 -0 0 13.71017 -8.587502 9.947549 4.504522 7.484867 -21.3534 0.1971369 -91.84451 21.33762 18.66007 0 0 -16.67819 12.69554 13.92721 -1.736489
1.662409 101.8919 9.396095 -0.3914674 2.13128 -1.208788 6.26886 -28.54017 9.929194 -0 27.27343 -0 -5.054328 -10.70673 -4.271154 -5.980546 10.85215 -19.81106 -0 4.5014 -0 8.09216 -20.89782 24.50473 -1.711211 -2.071189 3.832293 3.773418 9.16865 -8.873005 1.283249 19.34239 7.804666 4.181231 -28.03211 9.934797 5.331261 -17.80933 11.37528 87.46012 34.03073 -21.94692 -0 0 12.99875 -8.512393 10.20067 4.426485 7.699619 -21.53889 0.260394 -91.68054 21.33752 18.00138 0 0 -17.44283 12.54387 13.60077 -1.63016
1.82149 101.0233 11.93324 -0.855723 2.61704 -1.222967 6.808398 -31.41796 8.87167 -0 24.52461 -0 -5.735566 -8.282154 -3.882734 -5.514055 11.73026 -19.24335 -0 5.040788 -0 5.09271 -23.19466 22.51484 -1.540841 -1.910974 3.585877 3.91852 9.009305 -9.024732 1.221623 19.07117 8.191067 4.521313 -28.38915 10.07438 5.424185 -17.30877 11.39214 87.72503 33.86301 -22.63055 -0 0 12.30605 -8.490658 10.45758 4.422999 7.881248 -21.71899 0.2861314 -91.52001 21.40475 17.39609 0 0 -18.22179 12.27945 13.28356 -1.34197
1.917488 100.0769 14.92686 -1.252486 3.147099 -1.076797 7.145148 -33.96445 7.607043 -0 21.4655 -0 -6.451984 -5.923342 -3.320392 -5.095501 12.71811 -18.59471 -0 6.091339 -0 2.188425 -24.85541 20.14262 -1.372468 -1.73305 3.362279 4.040581 8.863274 -9.148418 1.151745 18.83293 8.54313 4.835929 -28.66435 10.16103 5.50481 -16.82872 11.41947 87.93341 33.68491 -23.19578 -0 0 11.63847 -8.552963 10.70737 4.513135 8.018189 -21.88546 0.2785751 -91.32973 21.47224 16.81806 0 0 -18.98808 11.93648 12.94293 -0.9482194
1.954778 99.13164 18.4882 -1.580917 3.731209 -0.734336 7.325097 -35.82293 6.338616 -0 18.32846 -0 -7.049 -3.855386 -2.736127 -4.729139 13.76959 -17.86515 -0 7.89971 -0 -0.6191287 -25.62301 17.45271 -1.212066 -1.542032 3.164216 4.138567 8.735455 -9.243585 1.074863 18.63615 8.849551 5.114021 -28.84632 10.18781 5.577046 -16.37485 11.45705 88.08164 33.50331 -23.63836 -0 0 10.99972 -8.694559 10.94074 4.694039 8.104274 -22.03551 0.2312563 -91.11114 21.54464 16.27594 0 0 -19.73 11.5146 12.59086 -0.4438704
1.943293 98.29924 22.70878 -1.86499 4.311674 -0.1890886 7.468733 -36.55598 5.321652 -0 15.57575 -0 -7.414839 -2.332861 -2.296603 -4.394961 14.75389 -17.0379 -0 10.82237 -0 -3.191399 -25.14081 14.62521 -1.067714 -1.340849 3.00021 4.208338 8.634045 -9.306499 0.9915317 18.49143 9.093875 5.339998 -28.91787 10.14295 5.634959 -15.96313 11.50622 88.1618 33.32287 -23.93301 -0 0 10.40677 -8.928403 11.14682 4.973215 8.12948 -22.16249 0.1406388 -90.85772 21.60763 15.77828 0 0 -20.42283 11.02308 12.22853 0.156794
1.898092 97.71588 27.62617 -2.169382 4.76524 0.5085389 7.766325 -35.799 4.833816 -0 13.82656 -0 -7.539094 -1.581402 -2.152715 -4.029694 15.3987 -16.08774 -0 15.27453 -0 -5.336661 -23.10163 11.94315 -0.9490275 -1.13512 2.885099 4.240361 8.568782 -9.328317 0.9037054 18.41415 9.256015 5.496359 -28.85379 10.01339 5.675437 -15.61547 11.56602 88.15736 33.15541 -24.04354 -0 0 9.88874 -9.267369 11.3148 5.356727 8.083269 -22.25791 0.002290797 -90.57207 21.66128 15.34994 0 0 -21.03591 10.46483 11.86633 0.8561465
1.835929 97.51044 33.17719 -2.562622 4.885823 1.223199 8.320658 -33.40364 4.944432 -0 13.60111 -0 -7.598741 -1.706609 -2.336336 -3.548467 15.26238 -14.99068 -0 21.59838 -0 -6.945773 -19.46688 9.696316 -0.867014 -0.9316401 2.840544 4.220807 8.551261 -9.296234 0.8146695 18.41994 9.314173 5.565347 -28.6273 9.787707 5.689785 -15.36392 11.63438 88.0469 33.01431 -23.91892 -0 0 9.492508 -9.732787 11.43513 5.850641 7.956517 -22.31006 -0.1824873 -90.25953 21.69907 15.02443 0 0 -21.52587 9.85255 11.51176 1.642953
1.771764 97.761 39.16806 -3.029668 4.447036 1.738489 8.978766 -29.5639 5.325615 -0 14.85973 -0 -7.920514 -2.609203 -2.682581 -2.923324 13.80987 -13.76075 -0 29.84752 -0 -8.126748 -14.72081 8.059765 -0.8318409 -0.7386735 2.893426 4.132535 8.59255 -9.194546 0.7298774 18.51971 9.250691 5.534692 -28.21804 9.462622 5.664297 -15.24838 11.70707 87.80677 32.91144 -23.5007 -0 0 9.283275 -10.34935 11.5028 6.454986 7.746794 -22.30517 -0.4026832 -89.93296 21.70948 14.84364 0 0 -21.83967 9.212005 11.16829 2.488092
1.720114 98.46359 45.30688 -3.371566 3.354181 1.837437 9.327443 -24.73631 5.38758 -0 16.65403 -0 -8.691672 -4.024725 -2.891479 -2.301065 10.64534 -12.48366 -0 39.54356 -0 -9.077676 -9.911831 7.094058 -0.849038 -0.5646293 3.070169 3.959127 8.699438 -9.008443 0.6567679 18.71147 9.060494 5.40463 -27.62467 9.049965 5.579862 -15.31031 11.77763 87.41821 32.84699 -22.73706 -0 0 9.338803 -11.13836 11.51993 7.159121 7.463939 -22.22967 -0.6340359 -89.61375 21.67232 14.84977 0 0 -21.92255 8.584983 10.82909 3.336392
1.698139 99.53402 51.31451 -3.244911 1.771112 1.45888 8.944089 -19.33625 4.783193 -0 17.49241 -0 -9.61746 -5.678069 -2.753763 -1.990675 5.787267 -11.28939 -0 49.53927 -0 -9.752582 -6.229915 6.842755 -0.9159345 -0.4163571 3.386961 3.691113 8.869668 -8.728979 0.6031205 18.9765 8.757064 5.191121 -26.87274 8.57858 5.417436 -15.58067 11.83834 86.87472 32.79922 -21.60283 -0 0 9.733062 -12.10362 11.49364 7.940043 7.130172 -22.07215 -0.8440996 -89.33315 21.56856 15.07838 0 0 -21.73236 8.014729 10.47782 4.123755
1.717847 100.8232 57.03686 -2.426805 0.04145869 0.7823305 7.75765 -13.56117 3.776553 -0 16.42177 -0 -10.03918 -7.340392 -2.325016 -2.172137 -0.2957592 -10.23018 -0 58.03723 -0 -9.788552 -4.327177 7.373007 -1.022021 -0.2977833 3.841108 3.331374 9.089721 -8.356559 0.574222 19.28567 8.369137 4.920024 -26.0097 8.086526 5.166524 -16.06898 11.88251 86.18586 32.7241 -20.11232 -0 0 10.51444 -13.22023 11.42931 8.767903 6.770861 -21.82358 -1.005624 -89.12984 21.39768 15.55492 0 0 -21.25081 7.519816 10.09835 4.812183
1.771801 102.1121 62.46011 -1.09426 -1.521076 0.09344276 6.182915 -7.607136 2.963465 -0 13.7361 -0 -9.547353 -8.797555 -1.827354 -2.563341 -6.946971 -9.163238 -0 62.84835 -0 -8.948883 -4.020933 8.682514 -1.153723 -0.210065 4.411345 2.894785 9.337796 -7.89962 0.5710452 19.61322 7.929212 4.616031 -25.08815 7.608011 4.832035 -16.76104 11.90657 85.37316 32.5737 -18.31394 -0 0 11.69077 -14.43794 11.32732 9.615678 6.402394 -21.4772 -1.108277 -89.04446 21.18943 16.2967 0 0 -20.48355 7.078528 9.689495 5.41635
